<?xml version="1.0" encoding="UTF-8" standalone="no"?>
<svg
   viewBox="0 0 48 48"
   role="img"
   aria-label="Metadata Metrics"
   version="1.1"
   id="svg4"
   sodipodi:docname="icon.svg"
   inkscape:version="1.4.4 (dcaf3e7, 2026-05-05)"
   xmlns:inkscape="http://www.inkscape.org/namespaces/inkscape"
   xmlns:sodipodi="http://sodipodi.sourceforge.net/DTD/sodipodi-0.dtd"
   xmlns="http://www.w3.org/2000/svg"
   xmlns:svg="http://www.w3.org/2000/svg">
  <sodipodi:namedview
     id="namedview4"
     pagecolor="#ffffff"
     bordercolor="#000000"
     borderopacity="0.25"
     inkscape:showpageshadow="2"
     inkscape:pageopacity="0.0"
     inkscape:pagecheckerboard="0"
     inkscape:deskcolor="#d1d1d1"
     inkscape:zoom="16.8125"
     inkscape:cx="23.97026"
     inkscape:cy="24"
     inkscape:window-width="1920"
     inkscape:window-height="1009"
     inkscape:window-x="-8"
     inkscape:window-y="-8"
     inkscape:window-maximized="1"
     inkscape:current-layer="svg4" />
  <defs
     id="defs2">
    <inkscape:path-effect
       effect="powerclip"
       message=""
       id="path-effect6"
       is_visible="true"
       lpeversion="1"
       inverse="true"
       flatten="false"
       hide_clip="false" />
    <linearGradient
       id="g"
       x1="7"
       y1="6"
       x2="40"
       y2="43"
       gradientUnits="userSpaceOnUse">
      <stop
         stop-color="#8B5CF6"
         id="stop1" />
      <stop
         offset="1"
         stop-color="#4F46E5"
         id="stop2" />
    </linearGradient>
    <filter
       id="mask-powermask-path-effect6_inverse"
       inkscape:label="filtermask-powermask-path-effect6"
       style="color-interpolation-filters:sRGB"
       height="100"
       width="100"
       x="-50"
       y="-50">
      <feColorMatrix
         id="mask-powermask-path-effect6_primitive1"
         values="1"
         type="saturate"
         result="fbSourceGraphic" />
      <feColorMatrix
         id="mask-powermask-path-effect6_primitive2"
         values="-1 0 0 0 1 0 -1 0 0 1 0 0 -1 0 1 0 0 0 1 0 "
         in="fbSourceGraphic" />
    </filter>
    <clipPath
       clipPathUnits="userSpaceOnUse"
       id="clipPath6">
      <circle
         cx="24"
         cy="34.5"
         r="2.4000001"
         fill="#ffffff"
         id="circle6"
         display="none"
         d="M 26.4,34.5 A 2.4000001,2.4000001 0 0 1 24,36.9 2.4000001,2.4000001 0 0 1 21.6,34.5 2.4000001,2.4000001 0 0 1 24,32.1 2.4000001,2.4000001 0 0 1 26.4,34.5 Z" />
      <path
         id="lpe_path-effect6"
         class="powerclip"
         d="M 1,11.579926 H 47 V 50 H 1 Z M 26.4,34.5 a 2.4000001,2.4000001 0 0 0 -2.4,-2.4 2.4000001,2.4000001 0 0 0 -2.4,2.4 2.4000001,2.4000001 0 0 0 2.4,2.4 2.4000001,2.4000001 0 0 0 2.4,-2.4 z" />
    </clipPath>
  </defs>
  <path
     fill="url(#g)"
     d="M 24.05948,25.66171 C 13.55948,25.66171 6,22.25316 6,16.579926 V 36 c 0,5 7.5,9 18,9 10.5,0 18,-4 18,-9 V 16.579926 c 0,5.613754 -7.44052,9.081784 -17.94052,9.081784 z"
     id="path5"
     sodipodi:nodetypes="sssssss"
     clip-path="url(#clipPath6)"
     inkscape:path-effect="#path-effect6"
     inkscape:original-d="M 24.05948,25.66171 C 13.55948,25.66171 6,22.25316 6,16.579926 V 36 c 0,5 7.5,9 18,9 10.5,0 18,-4 18,-9 V 16.579926 c 0,5.613754 -7.44052,9.081784 -17.94052,9.081784 z" />
  <path
     fill="url(#g)"
     d="M 24,3 C 13.5,3 6,7.1 6,12 v 1.873606 c 0,5 7.5,9 18,9 10.5,0 18,-4 18,-9 V 12 C 42,7.1 34.5,3 24,3 Z"
     id="path6"
     style="display:inline"
     sodipodi:nodetypes="sssssss" />
</svg>
